With: Edward James Olmos, Mary McDonnell and Katee Sackhoff

Mini-serie gebaseerd op de originele Battlestar Gallactica serie. Ook dit keer is een 'Rag-tag fugitive fleet' op de vlucht door de ruimte. Als de Cylons na een afwezigheid van 40 jaar terugkeren om de mens uit te roeien besluit de als enige overgebleven Battleship, de 'Galactica', na de destructie van de twaalf kolonieën, op zoek te gaan naar de verloren gewaande dertiende kolonie bekend als de Aarde.

A re-imagining of the original series in which a "rag-tag fugitive fleet" of the last remnants of mankind flees pursuing robots while simultaneously searching for their true home, Earth. 
 
http://www.imdb.com/title/tt0314979	

------------------------ Dutch Friends ------------------------
---------------------------------------------------------------
- Bezoek ook eens mijn vrienden op:  http://www.Film-Test.nl --
----- voor mijn Nederlandse Sync. ondertitels ---- en meer ----
------- http://www.Film-Test.nl ---- Over Films en meer -------
---------------------------------------------------------------

General:

Complete name                    : Battlestar GalacticaBattlestar Galactica.avi
Format                           : AVI
Format/Info                      : Audio Video Interleave
File size                        : 2.59 GiB
Duration                         : 2h 55mn
Overall bit rate                 : 2 114 Kbps

Video:

Format                           : MPEG-4 Visual
Format profile                   : Simple@L3
Format settings, BVOP            : No
Format settings, QPel            : No
Format settings, GMC             : No warppoints
Format settings, Matrix          : Default (H.263)
Codec ID                         : XVID
Codec ID/Hint                    : XviD
Duration                         : 2h 55mn
Bit rate                         : 1 719 Kbps
Width                            : 704 pixels
Height                           : 396 pixels
Display aspect ratio             : 16:9
Frame rate                       : 25.000 fps
Color space                      : YUV
Chroma subsampling               : 4:2:0
Bit depth                        : 8 bits
Scan type                        : Progressive
Compression mode                 : Lossy
Bits/(Pixel*Frame)               : 0.247
Stream size                      : 2.10 GiB (81%)
Writing library                  : XviD 1.1.2 (UTC 2006-11-01)

Audio:

Format                           : AC-3
Format/Info                      : Audio Coding 3
Mode extension                   : CM (complete main)
Codec ID                         : 2000
Duration                         : 2h 55mn
Bit rate mode                    : Constant
Bit rate                         : 384 Kbps
Channel(s)                       : 6 channels
Channel positions                : Front: L C R, Side: L R, LFE
Sampling rate                    : 48.0 KHz
Bit depth                        : 16 bits
Compression mode                 : Lossy
Stream size                      : 481 MiB (18%)
Alignment                        : Aligned on interleaves
Interleave, duration             : 32 ms (0.80 video frame)
Interleave, preload duration     : 32 ms